<?xml version="1.0" encoding="UTF-8"?>
<svg id="Capa_2" data-name="Capa 2" xmlns="http://www.w3.org/2000/svg" viewBox="0 0 803.27 876.7">
  <defs>
    <style>
      .cls-1 {
        fill: #820057;
      }
    </style>
  </defs>
  <g id="Capa_1-2" data-name="Capa 1">
    <path class="cls-1" d="M233.41,0v1.25c-65.13,38.83-130.25,157.8-71.39,339.41,23.8,73.89,80.16,113.97,144.03,113.97,78.9,0,169.08-60.11,226.69-190.37h1.25S637.94,0,637.94,0h165.32s-340.66,876.7-340.66,876.7h-220.43s-44.9-1.25-44.9-1.25c16.8-7.3,40.19-18.01,60-30.64,20.85-13.29,29.84-39.14,21.54-62.43L0,0h233.41ZM323.58,794.04c7.52-13.78,13.78-28.8,20.04-43.84l132.43-338.92c3.07-7.85-6.69-14.21-12.76-8.36-48.41,46.67-102.07,66.73-152.23,66.73-31.68,0-61.7-8.33-87.84-22.76-11.54-6.37-24.76,5.06-20.23,17.44l120.6,329.7Z"/>
  </g>
</svg>
